PathFileType	4	(X/Y/Z)	/Users/mathieubourgeois/Desktop/Analyse/Traitement/Sujet_07/Data/Transformed_Sujet_07_velo_100.trc
DataRate	CameraRate	NumFrames	NumMarkers	Units	OrigDataRate	OrigDataStartFrame	OrigNumFrames
120.000000	120.000000	5	36	mm	120.000000	1631	1864
Frame#	Time	RKNE			RKNI			LKNI			LKNE			LANI			LANE			LTOE			LHEE			RHEE			RTOE			RANE			RANI			RFWT			LFWT			RBWT			LBWT			T10			C7			RSHO			LSHO			LWRA			LWRB			RWRA			RWRB			RCAR			LCAR			LHUM			LRAD			RRAD			RHUM			STRN			RFHD			LFHD			RBHD			LBHD			CLAV			
		X1	Y1	Z1	X2	Y2	Z2	X3	Y3	Z3	X4	Y4	Z4	X5	Y5	Z5	X6	Y6	Z6	X7	Y7	Z7	X8	Y8	Z8	X9	Y9	Z9	X10	Y10	Z10	X11	Y11	Z11	X12	Y12	Z12	X13	Y13	Z13	X14	Y14	Z14	X15	Y15	Z15	X16	Y16	Z16	X17	Y17	Z17	X18	Y18	Z18	X19	Y19	Z19	X20	Y20	Z20	X21	Y21	Z21	X22	Y22	Z22	X23	Y23	Z23	X24	Y24	Z24	X25	Y25	Z25	X26	Y26	Z26	X27	Y27	Z27	X28	Y28	Z28	X29	Y29	Z29	X30	Y30	Z30	X31	Y31	Z31	X32	Y32	Z32	X33	Y33	Z33	X34	Y34	Z34	X35	Y35	Z35	X36	Y36	Z36	

1632	13.59166666666667	-53.83196640014651	877.8978271484375	228.9505462646484	-30.1742630004883	819.1981201171875	125.8821640014648	-135.2183227539062	740.5913696289062	-11.76174926757819	-101.5619888305664	786.3357543945312	-115.2519989013672	-363.5112609863281	439.752197265625	-42.30157089233406	-383.8092651367188	444.2159118652344	-129.3182220458985	-251.2905578613281	275.8824462890625	-106.0519332885743	-441.0692749023438	463.3105773925781	-90.43972015380868	-180.5481719970703	405.2630310058594	175.7134399414062	80.61999511718747	357.5448608398438	194.467544555664	-123.2158355712891	429.1795654296875	217.3981781005859	-99.71908569335939	438.7986755371094	129.2419128417968	-286.4170837402344	1229.98486328125	148.0882568359374	-285.8988037109375	1210.78271484375	-63.06675338745128	-440.3158874511719	1304.462280273438	97.21081542968736	-440.33203125	1294.27685546875	-16.13405418396009	-181.646728515625	1505.863891601562	22.35309600830067	66.47804260253906	1463.571044921875	47.65597152709952	68.100471496582	1412.131103515625	197.2160491943359	86.73509979248048	1439.290893554688	-79.44113159179695	314.39306640625	929.8111572265625	-107.8318939208985	277.2498168945312	883.32080078125	-156.8874969482422	319.1666259765624	940.4129638671875	254.0361175537109	280.0851745605468	899.4033813476562	303.1326904296875	368.5240478515624	923.0228881835938	343.7596130371094	372.9618225097656	913.400634765625	-193.3956146240234	90.17759704589845	1114.161010742188	-166.0169372558594	152.8423767089844	1131.122924804688	-180.7344360351563	103.5463485717773	1110.581909179688	300.0532836914062	59.5943908691406	1082.033569335938	254.5609130859374	-137.3552703857422	1274.727661132812	40.4487648010253	243.6678009033203	1307.197265625	162.7029266357421	263.7084655761719	1284.760009765625	32.89590072631832	214.2098236083984	1455.557250976562	147.6474609374999	234.7027893066406	1447.486206054688	5.686429977416932	29.56384468078613	1329.563110351562	55.73689270019524	
1633	13.6	-60.36177444458011	864.7400512695312	229.9044342041015	-36.44113922119142	806.4608154296875	126.7781524658203	-121.9961547851562	750.2560424804688	-10.1673316955567	-92.45825195312499	794.504150390625	-114.9300155639649	-363.2796936035156	455.9229736328125	-41.83031463623054	-383.2781677246094	460.9576416015625	-128.9996032714845	-253.8939819335938	290.41552734375	-105.8261337280274	-440.3006286621094	480.97509765625	-90.05391693115243	-177.2641296386719	390.64013671875	174.3537445068359	83.22946166992185	340.9160461425781	194.1680908203125	-120.4748458862305	414.1694030761719	216.5582733154296	-96.55677032470705	424.3856811523438	128.6412506103515	-285.4480285644531	1228.048828125	148.2498016357421	-286.0421447753906	1210.447265625	-63.1741065979005	-439.9587097167969	1302.69921875	98.64364624023423	-440.9158020019531	1293.320434570312	-14.88553905487074	-182.7809143066406	1505.613525390625	22.0113010406493	65.70875549316406	1463.60986328125	46.20629119873038	67.79647064208982	1412.015502929688	195.9212799072265	85.79162597656251	1439.388549804688	-80.8913650512696	314.2533874511719	929.8939819335938	-107.8466262817383	277.0902709960938	883.4575805664062	-156.9619445800782	319.1253356933593	940.3985595703125	253.8119354248047	279.9773254394531	899.4345703125	302.9042053222656	368.4017944335937	923.1279907226562	343.6287536621094	372.7617797851562	913.5797729492188	-193.499755859375	89.81763458251955	1114.005126953125	-166.0261688232422	152.4373016357422	1131.058349609375	-180.6780242919922	103.3073120117187	1110.46630859375	299.2451782226562	59.48912429809567	1081.900268554688	253.7225952148437	-138.0609130859375	1274.594848632812	39.76314544677725	243.2695007324218	1306.703125	160.6077880859374	262.9968566894531	1284.682861328125	30.72913551330562	213.8351898193359	1455.19384765625	146.0629272460937	234.0606079101562	1447.49462890625	4.11407184600824	28.89687728881835	1329.628173828125	54.22183609008781	
1634	13.60833333333333	-67.64356994628909	851.3214111328125	230.7633972167968	-42.03882217407228	793.0156860351562	127.986083984375	-116.9075317382812	758.2578125	-10.67291927337653	-83.62071228027342	803.3594970703125	-114.6157226562501	-361.8781433105469	472.5204467773438	-41.6363601684571	-381.8147277832031	477.5886840820312	-128.655731201172	-255.0057525634766	305.3518981933594	-105.5331192016602	-438.6604919433594	498.4882507324219	-89.7583770751954	-175.3248443603516	376.1910705566406	173.4390869140624	84.40224456787107	324.1278991699219	193.6799926757812	-119.1010208129883	399.36669921875	215.9889984130859	-94.82435607910158	410.0994567871094	128.3717193603515	-284.3166198730469	1226.100219726562	148.4262084960936	-286.2369079589844	1210.401123046875	-63.18056106567393	-439.4763793945312	1301.152221679688	100.1707611083983	-441.4159545898438	1292.551147460938	-13.49580287933363	-183.7906646728516	1505.487182617188	21.80123329162586	65.03512573242188	1463.707275390625	44.6777915954589	67.73007965087888	1411.83740234375	194.6035919189452	85.02111053466798	1439.5263671875	-82.47750854492195	314.1222229003906	929.9622192382812	-108.0419464111328	276.921875	883.5465087890625	-157.1705627441407	319.1927185058593	940.3616943359375	253.4471893310547	279.9699401855468	899.4774169921875	302.5537719726562	368.3345336914062	923.2650146484375	343.3658752441406	372.6143188476562	913.6638793945312	-193.7419128417969	89.5294647216797	1113.912353515625	-166.0723876953126	152.1146850585938	1131.048095703125	-180.7116241455078	103.169189453125	1110.345703125	298.4279785156249	59.48348999023435	1081.7607421875	252.937515258789	-138.5651092529297	1274.50048828125	39.05987930297842	242.7787017822265	1306.371704101562	158.6252899169921	262.4022827148438	1284.630493164062	28.59423065185542	213.5016937255859	1454.878173828125	144.4486999511718	233.5266265869141	1447.5341796875	2.417263269424378	28.54997444152831	1329.667114257812	52.60696411132805	
1635	13.61666666666667	-75.74415588378909	837.853759765625	231.6021270751953	-49.88628387451173	780.5066528320312	128.9158935546874	-107.7656478881836	768.0128173828125	-10.06582260131842	-75.05848693847655	812.8236694335938	-114.2904052734376	-359.8757629394531	488.1871032714844	-40.73007583618171	-379.4268188476562	493.9986877441406	-128.2544250488282	-254.4057769775391	320.5876159667969	-105.3520660400391	-436.1699523925781	515.5673828125	-89.42904663085946	-175.0028381347657	362.379150390625	172.8790588378906	84.05912780761716	307.3664245605469	193.0525665283203	-119.1186828613282	384.8101196289062	215.7200164794921	-94.45447540283205	396.0849304199219	128.3389892578125	-282.7151184082031	1223.666870117188	147.9208679199218	-286.4667663574219	1210.623657226562	-63.22689437866222	-438.7988891601562	1299.853515625	101.6079025268553	-441.8034973144531	1292.047119140625	-12.09898281097425	-184.5999908447266	1505.53955078125	21.70164489746082	64.56455230712891	1463.889404296875	43.11589813232413	67.81903076171872	1411.68701171875	193.2336120605468	84.36192321777345	1439.694213867188	-84.09513854980476	314.0095520019531	930.0148315429688	-108.4030685424805	276.7499694824219	883.6170654296875	-157.5337829589844	319.3031005859374	940.2904052734375	253.0171661376953	280.0751953124999	899.4746704101562	302.1210327148438	368.3455200195312	923.3767700195312	342.9852600097656	372.4660339355469	913.6610107421875	-194.0881042480469	89.29730224609376	1113.869506835938	-166.2220611572266	151.8579254150391	1131.085815429688	-180.8307647705078	103.2379379272461	1110.259887695312	297.6080932617187	59.58770751953122	1081.667724609375	252.2014617919921	-139.0763702392578	1274.623657226562	38.51777648925772	242.479263305664	1306.081787109375	156.5114288330078	261.9215087890625	1284.613891601562	26.4489421844482	213.2819671630859	1454.625122070312	142.7531127929687	233.1351013183594	1447.589477539062	0.7313485741614695	28.14136123657226	1329.844360351562	51.01694488525383	
1636	13.625	-84.45615386962893	824.5672607421875	232.1873626708984	-58.62966918945314	767.4378051757812	129.6685485839843	-99.18991851806641	778.02978515625	-9.490612030029357	-66.76367950439452	822.8545532226562	-113.9700622558594	-356.8297424316406	503.8041381835938	-40.26210021972663	-376.0953674316406	509.9360961914062	-127.9440917968751	-252.6812286376953	335.5404052734375	-104.5419311523438	-432.9781494140625	531.97607421875	-89.0539093017579	-176.050765991211	349.2601623535156	172.7822875976562	82.1507873535156	290.7413635253906	192.4728240966797	-120.4892959594727	370.8005676269531	215.8425750732421	-95.53237152099611	382.5642700195312	128.7013854980468	-281.4234619140625	1221.908447265625	148.2585449218749	-286.7114868164062	1211.068115234375	-63.23786544799815	-438.019287109375	1298.881225585938	103.2901458740233	-442.074951171875	1291.859375	-10.53585338592543	-185.1232147216797	1505.676879882812	21.77200508117664	64.23504638671875	1464.1259765625	41.52219772338859	68.13233947753903	1411.632690429688	191.8648376464843	83.91917419433595	1439.861206054688	-85.64768218994148	313.875244140625	930.0536499023438	-108.8241882324219	276.888427734375	883.9324951171875	-157.6237030029297	319.5219726562499	940.1702880859375	252.526870727539	280.2390747070312	899.4835205078125	301.7071838378906	368.4719543457031	923.4683837890625	342.5457458496094	372.2961730957031	913.6242065429688	-194.4958953857422	89.0886688232422	1113.892333984375	-166.4568634033204	151.6329956054688	1131.14697265625	-181.0588531494141	103.5094680786132	1110.287353515625	296.6868896484374	59.84830474853513	1081.670043945312	251.3938293457031	-139.4472808837891	1274.848388671875	37.99401092529288	242.3133697509765	1305.821166992188	154.3936309814453	261.5747375488281	1284.624633789062	24.28173065185542	213.2666473388672	1454.427368164062	141.0292053222656	232.9068145751953	1447.664306640625	-1.036693811416686	27.85405731201171	1330.095092773438	49.35520553588859	
